<svg width="36" height="36" viewBox="0 0 36 36" fill="none" xmlns="http://www.w3.org/2000/svg">
<path d="M17.4757 8.73786C17.4757 13.5637 13.5637 17.4757 8.73786 17.4757C3.91207 17.4757 0 13.5637 0 8.73786C0 3.91207 3.91207 0 8.73786 0C13.5637 0 17.4757 3.91207 17.4757 8.73786Z" fill="#4BA414"/>
<path d="M8.25243 8.73786H17.4757V17.4757H8.25243V8.73786Z" fill="#4BA414"/>
<path d="M18.5243 8.73786C18.5243 13.5637 22.4363 17.4757 27.2621 17.4757C32.0879 17.4757 36 13.5637 36 8.73786C36 3.91207 32.0879 0 27.2621 0C22.4363 0 18.5243 3.91207 18.5243 8.73786Z" fill="#4BA414"/>
<path d="M27.7476 8.73786H18.5243V17.4757H27.7476V8.73786Z" fill="#4BA414"/>
<path d="M18.5243 27.2621C18.5243 22.4363 22.4363 18.5243 27.2621 18.5243C32.0879 18.5243 36 22.4363 36 27.2621C36 32.0879 32.0879 36 27.2621 36C22.4363 36 18.5243 32.0879 18.5243 27.2621Z" fill="#4BA414"/>
<path d="M27.7476 27.2621H18.5243V18.5243H27.7476V27.2621Z" fill="#4BA414"/>
<path d="M17.4757 27.2621C17.4757 22.4363 13.5637 18.5243 8.73786 18.5243C3.91207 18.5243 0 22.4363 0 27.2621C0 32.0879 3.91207 36 8.73786 36C13.5637 36 17.4757 32.0879 17.4757 27.2621Z" fill="#4BA414"/>
<path d="M8.25243 27.2621H17.4757V18.5243H8.25243V27.2621Z" fill="#4BA414"/>
</svg>
